<svg xmlns="http://www.w3.org/2000/svg" version="1.1" xmlns:xlink="http://www.w3.org/1999/xlink" xmlns:svgjs="http://svgjs.dev/svgjs" width="1440" height="560" preserveAspectRatio="none" viewBox="0 0 1440 560"><g mask="url(&quot;#SvgjsMask1423&quot;)" fill="none"><rect width="1440" height="560" x="0" y="0" fill="url(&quot;#SvgjsLinearGradient1424&quot;)"></rect><path d="M135.18 294.33L200.14 331.83L200.14 406.83L135.18 444.33L70.23 406.83L70.23 331.83zM70.23 406.83L135.18 444.33L135.18 519.33L70.23 556.83L5.28 519.33L5.28 444.33zM135.18 519.33L200.14 556.83L200.14 631.83L135.18 669.33L70.23 631.83L70.23 556.83zM200.14 -43.17L265.09 -5.67L265.09 69.33L200.14 106.83L135.18 69.33L135.18 -5.67zM265.09 69.33L330.05 106.83L330.05 181.83L265.09 219.33L200.14 181.83L200.14 106.83zM265.09 519.33L330.05 556.83L330.05 631.83L265.09 669.33L200.14 631.83L200.14 556.83zM395 294.33L459.95 331.83L459.95 406.83L395 444.33L330.05 406.83L330.05 331.83zM330.05 406.83L395 444.33L395 519.33L330.05 556.83L265.09 519.33L265.09 444.33zM524.91 294.33L589.86 331.83L589.86 406.83L524.91 444.33L459.95 406.83L459.95 331.83zM459.95 406.83L524.91 444.33L524.91 519.33L459.95 556.83L395 519.33L395 444.33zM524.91 519.33L589.86 556.83L589.86 631.83L524.91 669.33L459.95 631.83L459.95 556.83zM589.86 -43.17L654.81 -5.67L654.81 69.33L589.86 106.83L524.91 69.33L524.91 -5.67zM589.86 406.83L654.81 444.33L654.81 519.33L589.86 556.83L524.91 519.33L524.91 444.33zM654.81 519.33L719.77 556.83L719.77 631.83L654.81 669.33L589.86 631.83L589.86 556.83zM719.77 181.83L784.72 219.33L784.72 294.33L719.77 331.83L654.81 294.33L654.81 219.33zM784.72 294.33L849.68 331.83L849.68 406.83L784.72 444.33L719.77 406.83L719.77 331.83zM849.67 181.83L914.63 219.33L914.63 294.33L849.67 331.83L784.72 294.33L784.72 219.33zM914.63 519.33L979.58 556.83L979.58 631.83L914.63 669.33L849.67 631.83L849.67 556.83zM979.58 -43.17L1044.54 -5.67L1044.54 69.33L979.58 106.83L914.63 69.33L914.63 -5.67zM979.58 181.83L1044.54 219.33L1044.54 294.33L979.58 331.83L914.63 294.33L914.63 219.33zM979.58 406.83L1044.54 444.33L1044.54 519.33L979.58 556.83L914.63 519.33L914.63 444.33zM1044.54 519.33L1109.49 556.83L1109.49 631.83L1044.54 669.33L979.58 631.83L979.58 556.83zM1239.4 181.83L1304.35 219.33L1304.35 294.33L1239.4 331.83L1174.44 294.33L1174.44 219.33zM1304.35 519.33L1369.3 556.83L1369.3 631.83L1304.35 669.33L1239.4 631.83L1239.4 556.83zM1369.31 406.83L1434.26 444.33L1434.26 519.33L1369.31 556.83L1304.35 519.33L1304.35 444.33z" stroke="#03305d" stroke-width="2"></path><path d="M127.68 294.33 a7.5 7.5 0 1 0 15 0 a7.5 7.5 0 1 0 -15 0zM192.64 331.83 a7.5 7.5 0 1 0 15 0 a7.5 7.5 0 1 0 -15 0zM192.64 406.83 a7.5 7.5 0 1 0 15 0 a7.5 7.5 0 1 0 -15 0zM127.68 444.33 a7.5 7.5 0 1 0 15 0 a7.5 7.5 0 1 0 -15 0zM62.73 406.83 a7.5 7.5 0 1 0 15 0 a7.5 7.5 0 1 0 -15 0zM62.73 331.83 a7.5 7.5 0 1 0 15 0 a7.5 7.5 0 1 0 -15 0zM127.68 519.33 a7.5 7.5 0 1 0 15 0 a7.5 7.5 0 1 0 -15 0zM62.73 556.83 a7.5 7.5 0 1 0 15 0 a7.5 7.5 0 1 0 -15 0zM-2.22 519.33 a7.5 7.5 0 1 0 15 0 a7.5 7.5 0 1 0 -15 0zM-2.22 444.33 a7.5 7.5 0 1 0 15 0 a7.5 7.5 0 1 0 -15 0zM192.64 556.83 a7.5 7.5 0 1 0 15 0 a7.5 7.5 0 1 0 -15 0zM192.64 631.83 a7.5 7.5 0 1 0 15 0 a7.5 7.5 0 1 0 -15 0zM127.68 669.33 a7.5 7.5 0 1 0 15 0 a7.5 7.5 0 1 0 -15 0zM62.73 631.83 a7.5 7.5 0 1 0 15 0 a7.5 7.5 0 1 0 -15 0zM192.64 -43.17 a7.5 7.5 0 1 0 15 0 a7.5 7.5 0 1 0 -15 0zM257.59 -5.67 a7.5 7.5 0 1 0 15 0 a7.5 7.5 0 1 0 -15 0zM257.59 69.33 a7.5 7.5 0 1 0 15 0 a7.5 7.5 0 1 0 -15 0zM192.64 106.83 a7.5 7.5 0 1 0 15 0 a7.5 7.5 0 1 0 -15 0zM127.68 69.33 a7.5 7.5 0 1 0 15 0 a7.5 7.5 0 1 0 -15 0zM127.68 -5.67 a7.5 7.5 0 1 0 15 0 a7.5 7.5 0 1 0 -15 0zM322.55 106.83 a7.5 7.5 0 1 0 15 0 a7.5 7.5 0 1 0 -15 0zM322.55 181.83 a7.5 7.5 0 1 0 15 0 a7.5 7.5 0 1 0 -15 0zM257.59 219.33 a7.5 7.5 0 1 0 15 0 a7.5 7.5 0 1 0 -15 0zM192.64 181.83 a7.5 7.5 0 1 0 15 0 a7.5 7.5 0 1 0 -15 0zM257.59 519.33 a7.5 7.5 0 1 0 15 0 a7.5 7.5 0 1 0 -15 0zM322.55 556.83 a7.5 7.5 0 1 0 15 0 a7.5 7.5 0 1 0 -15 0zM322.55 631.83 a7.5 7.5 0 1 0 15 0 a7.5 7.5 0 1 0 -15 0zM257.59 669.33 a7.5 7.5 0 1 0 15 0 a7.5 7.5 0 1 0 -15 0zM387.5 294.33 a7.5 7.5 0 1 0 15 0 a7.5 7.5 0 1 0 -15 0zM452.45 331.83 a7.5 7.5 0 1 0 15 0 a7.5 7.5 0 1 0 -15 0zM452.45 406.83 a7.5 7.5 0 1 0 15 0 a7.5 7.5 0 1 0 -15 0zM387.5 444.33 a7.5 7.5 0 1 0 15 0 a7.5 7.5 0 1 0 -15 0zM322.55 406.83 a7.5 7.5 0 1 0 15 0 a7.5 7.5 0 1 0 -15 0zM322.55 331.83 a7.5 7.5 0 1 0 15 0 a7.5 7.5 0 1 0 -15 0zM387.5 519.33 a7.5 7.5 0 1 0 15 0 a7.5 7.5 0 1 0 -15 0zM257.59 444.33 a7.5 7.5 0 1 0 15 0 a7.5 7.5 0 1 0 -15 0zM517.41 294.33 a7.5 7.5 0 1 0 15 0 a7.5 7.5 0 1 0 -15 0zM582.36 331.83 a7.5 7.5 0 1 0 15 0 a7.5 7.5 0 1 0 -15 0zM582.36 406.83 a7.5 7.5 0 1 0 15 0 a7.5 7.5 0 1 0 -15 0zM517.41 444.33 a7.5 7.5 0 1 0 15 0 a7.5 7.5 0 1 0 -15 0zM517.41 519.33 a7.5 7.5 0 1 0 15 0 a7.5 7.5 0 1 0 -15 0zM452.45 556.83 a7.5 7.5 0 1 0 15 0 a7.5 7.5 0 1 0 -15 0zM582.36 556.83 a7.5 7.5 0 1 0 15 0 a7.5 7.5 0 1 0 -15 0zM582.36 631.83 a7.5 7.5 0 1 0 15 0 a7.5 7.5 0 1 0 -15 0zM517.41 669.33 a7.5 7.5 0 1 0 15 0 a7.5 7.5 0 1 0 -15 0zM452.45 631.83 a7.5 7.5 0 1 0 15 0 a7.5 7.5 0 1 0 -15 0zM582.36 -43.17 a7.5 7.5 0 1 0 15 0 a7.5 7.5 0 1 0 -15 0zM647.31 -5.67 a7.5 7.5 0 1 0 15 0 a7.5 7.5 0 1 0 -15 0zM647.31 69.33 a7.5 7.5 0 1 0 15 0 a7.5 7.5 0 1 0 -15 0zM582.36 106.83 a7.5 7.5 0 1 0 15 0 a7.5 7.5 0 1 0 -15 0zM517.41 69.33 a7.5 7.5 0 1 0 15 0 a7.5 7.5 0 1 0 -15 0zM517.41 -5.67 a7.5 7.5 0 1 0 15 0 a7.5 7.5 0 1 0 -15 0zM647.31 444.33 a7.5 7.5 0 1 0 15 0 a7.5 7.5 0 1 0 -15 0zM647.31 519.33 a7.5 7.5 0 1 0 15 0 a7.5 7.5 0 1 0 -15 0zM712.27 556.83 a7.5 7.5 0 1 0 15 0 a7.5 7.5 0 1 0 -15 0zM712.27 631.83 a7.5 7.5 0 1 0 15 0 a7.5 7.5 0 1 0 -15 0zM647.31 669.33 a7.5 7.5 0 1 0 15 0 a7.5 7.5 0 1 0 -15 0zM712.27 181.83 a7.5 7.5 0 1 0 15 0 a7.5 7.5 0 1 0 -15 0zM777.22 219.33 a7.5 7.5 0 1 0 15 0 a7.5 7.5 0 1 0 -15 0zM777.22 294.33 a7.5 7.5 0 1 0 15 0 a7.5 7.5 0 1 0 -15 0zM712.27 331.83 a7.5 7.5 0 1 0 15 0 a7.5 7.5 0 1 0 -15 0zM647.31 294.33 a7.5 7.5 0 1 0 15 0 a7.5 7.5 0 1 0 -15 0zM647.31 219.33 a7.5 7.5 0 1 0 15 0 a7.5 7.5 0 1 0 -15 0zM842.18 331.83 a7.5 7.5 0 1 0 15 0 a7.5 7.5 0 1 0 -15 0zM842.18 406.83 a7.5 7.5 0 1 0 15 0 a7.5 7.5 0 1 0 -15 0zM777.22 444.33 a7.5 7.5 0 1 0 15 0 a7.5 7.5 0 1 0 -15 0zM712.27 406.83 a7.5 7.5 0 1 0 15 0 a7.5 7.5 0 1 0 -15 0zM842.17 181.83 a7.5 7.5 0 1 0 15 0 a7.5 7.5 0 1 0 -15 0zM907.13 219.33 a7.5 7.5 0 1 0 15 0 a7.5 7.5 0 1 0 -15 0zM907.13 294.33 a7.5 7.5 0 1 0 15 0 a7.5 7.5 0 1 0 -15 0zM842.17 331.83 a7.5 7.5 0 1 0 15 0 a7.5 7.5 0 1 0 -15 0zM907.13 519.33 a7.5 7.5 0 1 0 15 0 a7.5 7.5 0 1 0 -15 0zM972.08 556.83 a7.5 7.5 0 1 0 15 0 a7.5 7.5 0 1 0 -15 0zM972.08 631.83 a7.5 7.5 0 1 0 15 0 a7.5 7.5 0 1 0 -15 0zM907.13 669.33 a7.5 7.5 0 1 0 15 0 a7.5 7.5 0 1 0 -15 0zM842.17 631.83 a7.5 7.5 0 1 0 15 0 a7.5 7.5 0 1 0 -15 0zM842.17 556.83 a7.5 7.5 0 1 0 15 0 a7.5 7.5 0 1 0 -15 0zM972.08 -43.17 a7.5 7.5 0 1 0 15 0 a7.5 7.5 0 1 0 -15 0zM1037.04 -5.67 a7.5 7.5 0 1 0 15 0 a7.5 7.5 0 1 0 -15 0zM1037.04 69.33 a7.5 7.5 0 1 0 15 0 a7.5 7.5 0 1 0 -15 0zM972.08 106.83 a7.5 7.5 0 1 0 15 0 a7.5 7.5 0 1 0 -15 0zM907.13 69.33 a7.5 7.5 0 1 0 15 0 a7.5 7.5 0 1 0 -15 0zM907.13 -5.67 a7.5 7.5 0 1 0 15 0 a7.5 7.5 0 1 0 -15 0zM972.08 181.83 a7.5 7.5 0 1 0 15 0 a7.5 7.5 0 1 0 -15 0zM1037.04 219.33 a7.5 7.5 0 1 0 15 0 a7.5 7.5 0 1 0 -15 0zM1037.04 294.33 a7.5 7.5 0 1 0 15 0 a7.5 7.5 0 1 0 -15 0zM972.08 331.83 a7.5 7.5 0 1 0 15 0 a7.5 7.5 0 1 0 -15 0zM972.08 406.83 a7.5 7.5 0 1 0 15 0 a7.5 7.5 0 1 0 -15 0zM1037.04 444.33 a7.5 7.5 0 1 0 15 0 a7.5 7.5 0 1 0 -15 0zM1037.04 519.33 a7.5 7.5 0 1 0 15 0 a7.5 7.5 0 1 0 -15 0zM907.13 444.33 a7.5 7.5 0 1 0 15 0 a7.5 7.5 0 1 0 -15 0zM1101.99 556.83 a7.5 7.5 0 1 0 15 0 a7.5 7.5 0 1 0 -15 0zM1101.99 631.83 a7.5 7.5 0 1 0 15 0 a7.5 7.5 0 1 0 -15 0zM1037.04 669.33 a7.5 7.5 0 1 0 15 0 a7.5 7.5 0 1 0 -15 0zM1231.9 181.83 a7.5 7.5 0 1 0 15 0 a7.5 7.5 0 1 0 -15 0zM1296.85 219.33 a7.5 7.5 0 1 0 15 0 a7.5 7.5 0 1 0 -15 0zM1296.85 294.33 a7.5 7.5 0 1 0 15 0 a7.5 7.5 0 1 0 -15 0zM1231.9 331.83 a7.5 7.5 0 1 0 15 0 a7.5 7.5 0 1 0 -15 0zM1166.94 294.33 a7.5 7.5 0 1 0 15 0 a7.5 7.5 0 1 0 -15 0zM1166.94 219.33 a7.5 7.5 0 1 0 15 0 a7.5 7.5 0 1 0 -15 0zM1296.85 519.33 a7.5 7.5 0 1 0 15 0 a7.5 7.5 0 1 0 -15 0zM1361.8 556.83 a7.5 7.5 0 1 0 15 0 a7.5 7.5 0 1 0 -15 0zM1361.8 631.83 a7.5 7.5 0 1 0 15 0 a7.5 7.5 0 1 0 -15 0zM1296.85 669.33 a7.5 7.5 0 1 0 15 0 a7.5 7.5 0 1 0 -15 0zM1231.9 631.83 a7.5 7.5 0 1 0 15 0 a7.5 7.5 0 1 0 -15 0zM1231.9 556.83 a7.5 7.5 0 1 0 15 0 a7.5 7.5 0 1 0 -15 0zM1361.81 406.83 a7.5 7.5 0 1 0 15 0 a7.5 7.5 0 1 0 -15 0zM1426.76 444.33 a7.5 7.5 0 1 0 15 0 a7.5 7.5 0 1 0 -15 0zM1426.76 519.33 a7.5 7.5 0 1 0 15 0 a7.5 7.5 0 1 0 -15 0zM1361.81 556.83 a7.5 7.5 0 1 0 15 0 a7.5 7.5 0 1 0 -15 0zM1296.85 444.33 a7.5 7.5 0 1 0 15 0 a7.5 7.5 0 1 0 -15 0z" fill="#03305d"></path><path d="M33.97 -12.94L73.81 10.06L73.81 56.06L33.97 79.06L-5.87 56.06L-5.87 10.06zM73.81 56.06L113.65 79.06L113.65 125.06L73.81 148.06L33.97 125.06L33.97 79.06zM73.81 332.06L113.65 355.06L113.65 401.06L73.81 424.06L33.97 401.06L33.97 355.06zM33.97 401.06L73.81 424.06L73.81 470.06L33.97 493.06L-5.87 470.06L-5.87 424.06zM113.65 539.06L153.48 562.06L153.48 608.06L113.65 631.06L73.81 608.06L73.81 562.06zM233.16 56.06L273 79.06L273 125.06L233.16 148.06L193.32 125.06L193.32 79.06zM193.32 263.06L233.16 286.06L233.16 332.06L193.32 355.06L153.48 332.06L153.48 286.06zM233.16 332.06L273 355.06L273 401.06L233.16 424.06L193.32 401.06L193.32 355.06zM312.84 56.06L352.68 79.06L352.68 125.06L312.84 148.06L273 125.06L273 79.06zM273 263.06L312.84 286.06L312.84 332.06L273 355.06L233.16 332.06L233.16 286.06zM312.84 332.06L352.68 355.06L352.68 401.06L312.84 424.06L273 401.06L273 355.06zM273 401.06L312.84 424.06L312.84 470.06L273 493.06L233.16 470.06L233.16 424.06zM312.84 470.06L352.68 493.06L352.68 539.06L312.84 562.06L273 539.06L273 493.06zM273 539.06L312.84 562.06L312.84 608.06L273 631.06L233.16 608.06L233.16 562.06zM392.51 194.06L432.35 217.06L432.35 263.06L392.51 286.06L352.68 263.06L352.68 217.06zM352.68 539.06L392.51 562.06L392.51 608.06L352.68 631.06L312.84 608.06L312.84 562.06zM472.19 194.06L512.03 217.06L512.03 263.06L472.19 286.06L432.35 263.06L432.35 217.06zM512.03 539.06L551.87 562.06L551.87 608.06L512.03 631.06L472.19 608.06L472.19 562.06zM591.71 125.06L631.54 148.06L631.54 194.06L591.71 217.06L551.87 194.06L551.87 148.06zM591.71 539.06L631.54 562.06L631.54 608.06L591.71 631.06L551.87 608.06L551.87 562.06zM671.38 -12.94L711.22 10.06L711.22 56.06L671.38 79.06L631.54 56.06L631.54 10.06zM711.22 56.06L751.06 79.06L751.06 125.06L711.22 148.06L671.38 125.06L671.38 79.06zM671.38 539.06L711.22 562.06L711.22 608.06L671.38 631.06L631.54 608.06L631.54 562.06zM790.9 194.06L830.74 217.06L830.74 263.06L790.9 286.06L751.06 263.06L751.06 217.06zM790.9 332.06L830.74 355.06L830.74 401.06L790.9 424.06L751.06 401.06L751.06 355.06zM830.74 125.06L870.57 148.06L870.57 194.06L830.74 217.06L790.9 194.06L790.9 148.06zM830.74 263.06L870.57 286.06L870.57 332.06L830.74 355.06L790.9 332.06L790.9 286.06zM870.57 332.06L910.41 355.06L910.41 401.06L870.57 424.06L830.74 401.06L830.74 355.06zM830.74 401.06L870.57 424.06L870.57 470.06L830.74 493.06L790.9 470.06L790.9 424.06zM950.25 56.06L990.09 79.06L990.09 125.06L950.25 148.06L910.41 125.06L910.41 79.06zM910.41 125.06L950.25 148.06L950.25 194.06L910.41 217.06L870.57 194.06L870.57 148.06zM950.25 194.06L990.09 217.06L990.09 263.06L950.25 286.06L910.41 263.06L910.41 217.06zM910.41 263.06L950.25 286.06L950.25 332.06L910.41 355.06L870.57 332.06L870.57 286.06zM950.25 332.06L990.09 355.06L990.09 401.06L950.25 424.06L910.41 401.06L910.41 355.06zM910.41 401.06L950.25 424.06L950.25 470.06L910.41 493.06L870.57 470.06L870.57 424.06zM950.25 470.06L990.09 493.06L990.09 539.06L950.25 562.06L910.41 539.06L910.41 493.06zM990.09 539.06L1029.93 562.06L1029.93 608.06L990.09 631.06L950.25 608.06L950.25 562.06zM1069.77 -12.94L1109.6 10.06L1109.6 56.06L1069.77 79.06L1029.93 56.06L1029.93 10.06zM1109.6 194.06L1149.44 217.06L1149.44 263.06L1109.6 286.06L1069.77 263.06L1069.77 217.06zM1069.77 263.06L1109.6 286.06L1109.6 332.06L1069.77 355.06L1029.93 332.06L1029.93 286.06zM1109.6 332.06L1149.44 355.06L1149.44 401.06L1109.6 424.06L1069.77 401.06L1069.77 355.06zM1069.77 401.06L1109.6 424.06L1109.6 470.06L1069.77 493.06L1029.93 470.06L1029.93 424.06zM1149.44 -12.94L1189.28 10.06L1189.28 56.06L1149.44 79.06L1109.6 56.06L1109.6 10.06zM1189.28 332.06L1229.12 355.06L1229.12 401.06L1189.28 424.06L1149.44 401.06L1149.44 355.06zM1149.44 401.06L1189.28 424.06L1189.28 470.06L1149.44 493.06L1109.6 470.06L1109.6 424.06zM1189.28 470.06L1229.12 493.06L1229.12 539.06L1189.28 562.06L1149.44 539.06L1149.44 493.06zM1149.44 539.06L1189.28 562.06L1189.28 608.06L1149.44 631.06L1109.6 608.06L1109.6 562.06zM1229.12 -12.94L1268.96 10.06L1268.96 56.06L1229.12 79.06L1189.28 56.06L1189.28 10.06zM1229.12 125.06L1268.96 148.06L1268.96 194.06L1229.12 217.06L1189.28 194.06L1189.28 148.06zM1268.96 470.06L1308.8 493.06L1308.8 539.06L1268.96 562.06L1229.12 539.06L1229.12 493.06zM1229.12 539.06L1268.96 562.06L1268.96 608.06L1229.12 631.06L1189.28 608.06L1189.28 562.06zM1388.47 -12.94L1428.31 10.06L1428.31 56.06L1388.47 79.06L1348.63 56.06L1348.63 10.06zM1428.31 194.06L1468.15 217.06L1468.15 263.06L1428.31 286.06L1388.47 263.06L1388.47 217.06zM1428.31 332.06L1468.15 355.06L1468.15 401.06L1428.31 424.06L1388.47 401.06L1388.47 355.06zM1428.31 470.06L1468.15 493.06L1468.15 539.06L1428.31 562.06L1388.47 539.06L1388.47 493.06zM1507.99 56.06L1547.83 79.06L1547.83 125.06L1507.99 148.06L1468.15 125.06L1468.15 79.06zM1507.99 332.06L1547.83 355.06L1547.83 401.06L1507.99 424.06L1468.15 401.06L1468.15 355.06zM1507.99 470.06L1547.83 493.06L1547.83 539.06L1507.99 562.06L1468.15 539.06L1468.15 493.06zM1468.15 539.06L1507.99 562.06L1507.99 608.06L1468.15 631.06L1428.31 608.06L1428.31 562.06z" stroke="rgba(6, 125, 156, 0.93)" stroke-width="2"></path></g><defs><mask id="SvgjsMask1423"><rect width="1440" height="560" fill="#ffffff"></rect></mask><linearGradient x1="15.28%" y1="-39.29%" x2="84.72%" y2="139.29%" gradientUnits="userSpaceOnUse" id="SvgjsLinearGradient1424"><stop stop-color="rgba(18, 131, 77, 1)" offset="0"></stop><stop stop-color="rgba(98, 0, 158, 1)" offset="1"></stop></linearGradient></defs></svg>